<svg xmlns="http://www.w3.org/2000/svg" xmlns:xlink="http://www.w3.org/1999/xlink" version="1.1" id="Layer_1" x="0px" y="0px" width="79px" height="45px" viewBox="0 0 79 45" enable-background="new 0 0 79 45" xml:space="preserve">




<g>
	<path fill-rule="evenodd" clip-rule="evenodd" fill="#3A3A39" d="M71.287,19.712c0-0.116-0.055-0.227-0.141-0.293   c-0.084-0.058-0.189-0.064-0.287-0.064h-0.469v1.167h0.259v-0.457h0.19l0.171,0.457h0.288l-0.201-0.515   C71.214,19.965,71.287,19.841,71.287,19.712z M70.954,19.841c-0.047,0.026-0.108,0.026-0.16,0.026h-0.145V19.57h0.141   c0.05,0,0.123-0.006,0.164,0.019c0.036,0.021,0.063,0.074,0.063,0.117C71.018,19.758,70.997,19.813,70.954,19.841z"/>
	<path fill-rule="evenodd" clip-rule="evenodd" fill="#3A3A39" d="M70.823,18.617c-0.696,0-1.263,0.593-1.263,1.324   c0,0.734,0.566,1.328,1.263,1.328c0.695,0,1.261-0.594,1.261-1.328C72.084,19.21,71.519,18.617,70.823,18.617z M70.823,20.953   c-0.528,0-0.964-0.454-0.964-1.012c0-0.555,0.436-1.005,0.964-1.005c0.53,0,0.962,0.45,0.962,1.005   C71.785,20.499,71.354,20.953,70.823,20.953z"/>
	<path fill-rule="evenodd" clip-rule="evenodd" fill="#3A3A39" d="M46.612,16.696c0-2.279,1.11-3.875,2.683-3.875   c0.588,0,1.137,0.155,1.889,0.555l0.346-2.246c-0.188-0.083-0.252-0.099-0.51-0.201L50.153,10.7   c-0.263-0.076-0.585-0.111-0.949-0.111c-2.796,0-4.751,2.588-4.751,6.295c0,2.754,1.414,4.47,3.688,4.47   c0.585,0,1.093-0.08,1.867-0.302l0.366-2.364c-0.699,0.365-1.27,0.533-1.79,0.533C47.354,19.221,46.612,18.271,46.612,16.696z"/>
	<path fill-rule="evenodd" clip-rule="evenodd" fill="#3A3A39" d="M44.525,12.67c-0.066-0.014-0.14-0.023-0.217-0.023   c-0.694,0-1.087,0.369-1.734,1.371l0.189-1.279h-1.913l-1.295,8.425h2.118c0.761-5.149,0.955-6.039,1.969-6.039   c0.062,0,0.067,0,0.156,0.009c0.187-1.015,0.443-1.761,0.799-2.44L44.525,12.67z"/>
	<path fill-rule="evenodd" clip-rule="evenodd" fill="#3A3A39" d="M31.478,14.787h1.079l0.294-2.049h-1.077l0.239-1.249h-2.099   l-0.915,5.748l-0.099,0.67l-0.131,0.821c-0.041,0.268-0.06,0.521-0.06,0.757c0,1.198,0.588,1.854,1.667,1.854   c0.486,0,0.942-0.088,1.515-0.278l0.28-1.863c-0.139,0.052-0.326,0.079-0.568,0.079c-0.497,0-0.719-0.194-0.719-0.624   c0-0.08,0.018-0.193,0.038-0.351L31.478,14.787z"/>
	<path fill-rule="evenodd" clip-rule="evenodd" fill="#3A3A39" d="M23.572,15.402c0,1.062,0.487,1.799,1.598,2.348   c0.852,0.423,0.983,0.547,0.983,0.931c0,0.523-0.375,0.764-1.204,0.764c-0.629,0-1.215-0.103-1.887-0.335l-0.294,1.942l0.098,0.021   l0.388,0.08c0.123,0.027,0.306,0.053,0.547,0.077c0.506,0.046,0.892,0.07,1.166,0.07c2.213,0,3.234-0.895,3.234-2.812   c0-1.153-0.425-1.836-1.479-2.347c-0.883-0.42-0.98-0.519-0.98-0.909c0-0.457,0.347-0.692,1.026-0.692   c0.415,0,0.974,0.051,1.509,0.125l0.3-1.944c-0.548-0.093-1.367-0.166-1.849-0.166C24.38,12.555,23.563,13.848,23.572,15.402z"/>
	<path fill-rule="evenodd" clip-rule="evenodd" fill="#3A3A39" d="M67.86,10.805l-0.459,2.957c-0.584-0.798-1.206-1.153-2.024-1.153   c-1.865,0-3.436,2.367-3.436,5.168c0,2.107,1.009,3.497,2.553,3.497c0.772,0,1.37-0.283,1.951-0.936l-0.107,0.825h1.999   l1.603-10.358H67.86z M65.22,19.18c-0.718,0-1.08-0.556-1.08-1.659c0-1.657,0.681-2.833,1.636-2.833   c0.729,0,1.122,0.583,1.122,1.653C66.897,18.008,66.206,19.18,65.22,19.18z"/>
	<path fill-rule="evenodd" clip-rule="evenodd" fill="#3A3A39" d="M36.513,12.527c-2.124,0-3.687,2.132-3.687,5.025   c0,2.478,1.228,3.772,3.581,3.772c0.745,0.003,1.447-0.113,2.169-0.339l0.35-2.108c-0.757,0.371-1.437,0.535-2.187,0.535   c-1.231,0-1.858-0.495-1.858-1.479c0-0.075,0.004-0.134,0.022-0.262H39.1c0.188-0.854,0.263-1.46,0.263-2.08   C39.362,13.721,38.249,12.527,36.513,12.527z M37.392,15.971l-2.332-0.006c0.196-0.974,0.678-1.512,1.348-1.512   c0.626,0,0.999,0.402,0.999,1.091C37.406,15.649,37.404,15.794,37.392,15.971z"/>
	<polygon fill-rule="evenodd" clip-rule="evenodd" fill="#3A3A39" points="13.457,10.805 11.405,17.215 11.32,10.805 8.284,10.805    6.636,21.163 8.611,21.163 9.881,13.249 10.057,21.163 11.499,21.163 14.198,13.202 12.993,21.163 15.098,21.163 16.732,10.805     "/>
	<path fill-rule="evenodd" clip-rule="evenodd" fill="#3A3A39" d="M20.098,12.549c-0.781,0-1.474,0.126-2.527,0.453l-0.292,1.891   l0.184-0.056l0.296-0.084c0.474-0.151,1.156-0.241,1.754-0.241c0.989,0,1.354,0.212,1.354,0.769c0,0.146-0.014,0.269-0.08,0.546   c-0.317-0.045-0.621-0.062-0.858-0.062c-2.344,0-3.712,1.192-3.712,3.252c0,1.354,0.783,2.294,1.933,2.294   c0.966,0,1.677-0.323,2.21-1.02l-0.036,0.873h1.746l0.028-0.225l0.034-0.294l0.054-0.43l0.072-0.54l0.44-2.983   c0.146-0.942,0.178-1.252,0.178-1.672C22.874,13.404,21.91,12.549,20.098,12.549z M19.02,19.519c-0.461,0-0.762-0.335-0.762-0.859   c0-0.851,0.607-1.284,1.804-1.284c0.148,0,0.249,0.009,0.469,0.037C20.498,18.659,19.873,19.519,19.02,19.519z"/>
	<path fill-rule="evenodd" clip-rule="evenodd" fill="#3A3A39" d="M54.727,12.549c-0.774,0-1.471,0.126-2.526,0.453l-0.29,1.891   l0.181-0.056l0.299-0.084c0.469-0.151,1.154-0.241,1.755-0.241c0.989,0,1.354,0.212,1.354,0.769c0,0.146-0.021,0.269-0.085,0.546   c-0.312-0.045-0.618-0.062-0.858-0.062c-2.344,0-3.71,1.192-3.71,3.252c0,1.354,0.785,2.294,1.936,2.294   c0.964,0,1.677-0.323,2.21-1.02l-0.044,0.873h1.754l0.021-0.225l0.04-0.294l0.059-0.43l0.066-0.54l0.443-2.983   c0.137-0.942,0.171-1.252,0.171-1.672C57.501,13.404,56.542,12.549,54.727,12.549z M53.646,19.519c-0.461,0-0.76-0.335-0.76-0.859   c0-0.851,0.608-1.284,1.806-1.284c0.149,0,0.249,0.009,0.471,0.037C55.126,18.659,54.51,19.519,53.646,19.519z"/>
	<path fill-rule="evenodd" clip-rule="evenodd" fill="#3A3A39" d="M62.596,12.67c-0.064-0.014-0.132-0.023-0.214-0.023   c-0.694,0-1.091,0.369-1.739,1.371l0.188-1.279h-1.905l-1.294,8.425h2.115c0.756-5.149,0.956-6.039,1.968-6.039   c0.066,0,0.062-0.004,0.149,0.009c0.19-1.015,0.448-1.761,0.801-2.44L62.596,12.67z"/>
</g>
<g opacity="0.7">
	<path fill-rule="evenodd" clip-rule="evenodd" fill="#3A3A39" d="M52.792,25.596c-2.268,0-3.739,2.008-3.739,4.968   c0,2.114,0.869,3.849,3.018,3.849c2.169,0,3.744-1.538,3.744-5.042C55.814,27.244,54.765,25.596,52.792,25.596z M52.215,32.368   c-0.678,0.022-1.092-0.738-1.092-1.869c0-1.344,0.604-2.862,1.57-2.862c0.777,0,1.046,0.824,1.046,1.7   C53.739,31.243,53.147,32.368,52.215,32.368z"/>
	<path fill-rule="evenodd" clip-rule="evenodd" fill="#3A3A39" d="M45.141,29.67c0-2.278,1.033-3.881,2.505-3.881   c0.554,0,1.063,0.162,1.764,0.559l0.322-2.244c-0.175-0.085-0.225-0.104-0.479-0.2l-0.804-0.231   c-0.248-0.068-0.549-0.109-0.889-0.109c-2.615,0-4.441,2.586-4.441,6.297c0,2.751,1.324,4.469,3.447,4.469   c0.542,0,1.02-0.078,1.749-0.3l0.344-2.364c-0.653,0.365-1.188,0.535-1.681,0.535C45.832,32.199,45.141,31.244,45.141,29.67z"/>
	<path fill-rule="evenodd" clip-rule="evenodd" fill="#3A3A39" d="M36.686,25.646c-0.064-0.018-0.131-0.024-0.203-0.024   c-0.644,0-1.018,0.373-1.618,1.369l0.178-1.275h-1.785l-1.207,8.425h1.972c0.707-5.153,0.898-6.043,1.842-6.043   c0.055,0,0.061,0,0.145,0.01c0.176-1.017,0.416-1.766,0.745-2.445L36.686,25.646z"/>
	<path fill-rule="evenodd" clip-rule="evenodd" fill="#3A3A39" d="M61.98,23.694l-0.432,2.961c-0.54-0.796-1.122-1.161-1.893-1.161   c-1.738,0-3.211,2.373-3.211,5.17c0,2.107,0.949,3.502,2.385,3.502c0.721,0,1.282-0.29,1.825-0.938l-0.093,0.82h1.859l1.497-10.354   H61.98z M59.51,32.07c-0.666,0-1.01-0.56-1.01-1.656c0-1.665,0.636-2.836,1.535-2.836c0.675,0,1.043,0.58,1.043,1.651   C61.078,30.901,60.438,32.07,59.51,32.07z"/>
	<path fill-rule="evenodd" clip-rule="evenodd" fill="#3A3A39" d="M16.28,25.561c-1.979,0-3.442,2.136-3.442,5.023   c0,2.479,1.146,3.776,3.35,3.776c0.694,0,1.347-0.115,2.019-0.345l0.332-2.105c-0.705,0.372-1.345,0.535-2.048,0.535   c-1.141,0-1.729-0.494-1.729-1.477c0-0.074,0.004-0.136,0.013-0.262h3.927c0.172-0.854,0.242-1.462,0.242-2.083   C18.943,26.754,17.908,25.561,16.28,25.561z M17.104,29.005l-2.175-0.01c0.18-0.966,0.626-1.508,1.258-1.508   c0.585,0,0.934,0.402,0.934,1.087C17.121,28.684,17.114,28.823,17.104,29.005z"/>
	<path fill-rule="evenodd" clip-rule="evenodd" fill="#3A3A39" d="M39.718,25.561c-1.983,0-3.443,2.136-3.443,5.023   c0,2.479,1.146,3.776,3.354,3.776c0.69,0,1.345-0.115,2.019-0.345l0.328-2.105c-0.71,0.372-1.347,0.535-2.049,0.535   c-1.146,0-1.732-0.494-1.732-1.477c0-0.074,0.008-0.136,0.02-0.262h3.919c0.178-0.854,0.247-1.462,0.247-2.083   C42.38,26.754,41.342,25.561,39.718,25.561z M40.539,29.005l-2.171-0.01c0.181-0.966,0.628-1.508,1.261-1.508   c0.582,0,0.928,0.402,0.928,1.087C40.557,28.684,40.549,28.823,40.539,29.005z"/>
	<path fill-rule="evenodd" clip-rule="evenodd" fill="#3A3A39" d="M67.217,25.561c-1.983,0-3.446,2.136-3.446,5.023   c0,2.479,1.15,3.776,3.349,3.776c0.702,0,1.347-0.115,2.024-0.345l0.327-2.105c-0.706,0.372-1.34,0.535-2.044,0.535   c-1.146,0-1.733-0.494-1.733-1.477c0-0.074,0.003-0.136,0.017-0.262h3.923c0.173-0.854,0.241-1.462,0.241-2.083   C69.874,26.754,68.84,25.561,67.217,25.561z M68.036,29.005l-2.17-0.01c0.181-0.966,0.626-1.508,1.253-1.508   c0.587,0,0.934,0.402,0.934,1.087C68.053,28.684,68.046,28.823,68.036,29.005z"/>
	<path fill-rule="evenodd" clip-rule="evenodd" fill="#3A3A39" d="M10.726,25.543c0.739,0,1.261,0.227,1.646,0.484l0.487-2.1   c-0.511-0.339-1.373-0.474-2.295-0.474c-1.636,0-3.331,0.817-3.331,3.539c0,2.979,2.9,2.346,2.9,4.046   c0,1.081-0.972,1.248-1.59,1.248c-0.651,0-1.449-0.244-1.844-0.601l-0.472,2.145c0.654,0.288,1.54,0.545,2.315,0.545   c1.731,0,3.65-0.757,3.65-3.674c0-3.206-2.906-2.649-2.906-4.146C9.288,25.709,9.928,25.543,10.726,25.543z"/>
	<path fill-rule="evenodd" clip-rule="evenodd" fill="#3A3A39" d="M19.435,30.518c0,2.097,1.069,3.819,2.792,3.819   c0.799,0,1.343-0.129,1.75-0.324l0.293-2.164c-0.44,0.258-0.801,0.368-1.316,0.368c-0.859,0-1.406-0.818-1.406-1.815   c0-1.728,0.75-2.696,1.804-2.696c0.453,0,0.896,0.18,1.316,0.455l0.438-2.012c-0.597-0.344-1.356-0.559-1.851-0.559   C20.982,25.59,19.435,27.774,19.435,30.518z"/>
	<path fill-rule="evenodd" clip-rule="evenodd" fill="#3A3A39" d="M30.221,25.73l-0.582,3.85c-0.146,1.234-0.655,2.294-1.522,2.294   c-0.567,0.027-0.789-0.47-0.789-0.965c0-0.433,0.077-0.851,0.134-1.269l0.569-3.91h-2.112l-0.538,3.897   c-0.126,0.884-0.159,1.201-0.159,1.764c0,1.637,0.646,2.891,1.837,2.891c1.071,0,1.688-0.628,2.282-1.555h0.018l-0.159,1.361h1.897   c0.055-0.759,0.151-1.462,0.25-2.188l0.92-6.171H30.221z"/>
	<polygon fill-rule="evenodd" clip-rule="evenodd" fill="#3A3A39" points="70.331,32.59 70.792,32.59 70.792,33.983 71.111,33.983    71.111,32.59 71.572,32.59 71.572,32.287 70.331,32.287  "/>
	<polygon fill-rule="evenodd" clip-rule="evenodd" fill="#3A3A39" points="72.767,32.287 72.494,33.627 72.489,33.627    72.215,32.287 71.75,32.287 71.75,33.983 72.046,33.983 72.046,32.567 72.051,32.567 72.33,33.983 72.642,33.983 72.929,32.567    72.934,32.567 72.934,33.983 73.229,33.983 73.229,32.287  "/>
</g>






<path fill="#3A3A39" d="M74.206,45H4.792c-2.644,0-4.793-2.15-4.793-4.795V4.794C-0.001,2.15,2.148,0,4.792,0h69.412  c2.645,0,4.795,2.15,4.795,4.794v35.413C78.999,42.85,76.849,45,74.206,45z M4.792,3C3.819,3,2.999,3.821,2.999,4.794v35.413  C2.999,41.18,3.819,42,4.792,42h69.412c0.973,0,1.795-0.82,1.795-1.793V4.794C75.999,3.821,75.177,3,74.204,3H4.792z"/>


</svg>