<svg xmlns="http://www.w3.org/2000/svg" xmlns:xlink="http://www.w3.org/1999/xlink" version="1.1" id="Layer_1" x="0px" y="0px" width="79px" height="45px" viewBox="0 0 79 45" enable-background="new 0 0 79 45" xml:space="preserve">






<g>
	<path fill="#3A3A39" d="M34.304,23.803l-2.857,7.706l-0.305-1.566c-0.712-1.919-2.253-3.935-4.047-4.75l2.614,9.896l3.09-0.002   l4.596-11.283H34.304z"/>
	<polygon fill="#3A3A39" points="36.753,35.099 39.672,35.099 41.5,23.791 38.58,23.791  "/>
	<path fill="#3A3A39" d="M47.386,28.332c-1.019-0.524-1.647-0.871-1.638-1.403c0-0.47,0.527-0.972,1.673-0.972   c0.955-0.016,1.644,0.203,2.185,0.435l0.26,0.13l0.397-2.451c-0.577-0.229-1.487-0.477-2.616-0.477   c-2.888,0-4.917,1.535-4.935,3.731c-0.019,1.626,1.451,2.533,2.556,3.073c1.14,0.554,1.521,0.908,1.517,1.403   c-0.011,0.757-0.911,1.103-1.749,1.103c-1.167,0-1.789-0.17-2.746-0.592l-0.379-0.18l-0.408,2.53   c0.683,0.315,1.943,0.589,3.254,0.603c3.065,0,5.06-1.518,5.083-3.861C49.852,30.114,49.071,29.138,47.386,28.332z"/>
	<path fill="#3A3A39" d="M57.751,23.803h-2.256c-0.699,0-1.224,0.199-1.532,0.939l-4.334,10.359h3.066c0,0,0.502-1.395,0.615-1.699   c0.334,0,3.312,0.006,3.737,0.006c0.091,0.395,0.355,1.693,0.355,1.693h2.711L57.751,23.803z M54.15,31.089   c0.242-0.648,1.163-3.16,1.163-3.16c-0.018,0.03,0.239-0.654,0.388-1.077l0.195,0.975c0,0,0.561,2.698,0.678,3.263   C56.119,31.089,54.72,31.089,54.15,31.089z"/>
</g>
<path opacity="0.4" fill="#3A3A39" d="M28.795,23.797h-4.708l-0.027,0.194c3.661,0.937,6.076,3.235,7.082,5.954l-1.023-5.196  C29.942,24.034,29.43,23.822,28.795,23.797L28.795,23.797z"/>
<g>
	<polygon fill="#3A3A39" points="18.516,11.14 14.772,18.615 13.304,11.039 11.246,11.383 13.394,21.064 15.256,21.064    20.492,11.14  "/>
	<path fill="#3A3A39" d="M22.55,13.961c-1.804,0-3.36,1.36-3.706,3.609c-0.383,2.492,0.893,3.595,2.826,3.595   c1.117,0,2.07-0.33,2.895-0.845l0.007-1.346c-0.841,0.529-1.622,0.859-2.51,0.859c-1.06,0-1.686-0.587-1.564-1.934h4.44   c0.015-0.101,0.056-0.272,0.078-0.415C25.317,15.522,24.627,13.961,22.55,13.961z M20.691,16.825   c0.303-1.132,0.945-1.676,1.633-1.676c0.83,0,1.167,0.602,1.117,1.676H20.691z"/>
	<path fill="#3A3A39" d="M30.484,13.961c-1.084,0.058-1.875,0.73-2.456,1.532l-0.001-1.389h-1.461l-1.064,6.917h1.719l0.61-3.967   c0.602-0.745,1.577-1.318,2.662-1.39L30.484,13.961z"/>
	<path fill="#3A3A39" d="M32.893,10.968c-0.573,0-1.096,0.416-1.186,1.003c-0.089,0.572,0.309,0.974,0.881,0.974   c0.559,0,1.078-0.401,1.167-0.974C33.845,11.383,33.451,10.968,32.893,10.968z"/>
	<polygon fill="#3A3A39" points="30.471,21.021 32.189,21.021 33.254,14.104 31.536,14.104  "/>
	<path fill="#3A3A39" d="M38.138,14.104H36.82l0.156-1.017c0.096-0.616,0.449-0.874,1.037-0.874c0.286,0,0.539,0.028,0.707,0.057   l-0.013-1.403c-0.168-0.029-0.393-0.057-0.693-0.057c-1.418,0-2.479,0.573-2.716,2.105l-0.183,1.188h-1.003l-0.216,1.404H34.9   l-0.85,5.514h1.705l0.849-5.514h1.532L38.138,14.104z"/>
	<path fill="#3A3A39" d="M40.453,10.968c-0.572,0-1.095,0.416-1.186,1.003c-0.088,0.572,0.309,0.974,0.882,0.974   c0.559,0,1.078-0.401,1.167-0.974C41.406,11.383,41.012,10.968,40.453,10.968z"/>
	<polygon fill="#3A3A39" points="38.032,21.021 39.751,21.021 40.815,14.104 39.097,14.104  "/>
	<path fill="#3A3A39" d="M45.092,13.961c-1.805,0-3.36,1.36-3.706,3.609c-0.384,2.492,0.893,3.595,2.825,3.595   c1.118,0,2.07-0.33,2.895-0.845l0.008-1.346c-0.841,0.529-1.622,0.859-2.511,0.859c-1.06,0-1.685-0.587-1.563-1.934h4.439   c0.016-0.101,0.057-0.272,0.078-0.415C47.859,15.522,47.168,13.961,45.092,13.961z M43.232,16.825   c0.304-1.132,0.945-1.676,1.633-1.676c0.831,0,1.168,0.602,1.117,1.676H43.232z"/>
	<path fill="#3A3A39" d="M53.361,14.29c-0.393-0.143-0.906-0.258-1.564-0.258c-1.604,0-3.198,1.146-3.595,3.724   c-0.359,2.334,0.636,3.409,2.082,3.409c0.959,0,1.712-0.516,2.289-1.103l-0.005,0.96h1.476l1.592-10.34l-1.761,0.271L53.361,14.29z    M52.685,18.687c-0.547,0.573-1.091,0.945-1.721,0.945c-0.759,0-1.234-0.63-1.028-1.976c0.234-1.518,1.006-2.249,1.908-2.249   c0.587,0,0.9,0.101,1.299,0.301L52.685,18.687z"/>
	<path fill="#3A3A39" d="M60.781,15.673c-0.661,0-1.202,0.348-1.592,0.694l0.488-3.178l-1.333,0.206l-1.13,7.344   c0.617,0.217,1.28,0.347,2.094,0.347c1.562,0,2.754-0.9,3.051-2.832C62.629,16.498,61.889,15.673,60.781,15.673z M61.035,18.331   c-0.185,1.193-0.76,1.692-1.585,1.692c-0.368,0-0.546-0.044-0.803-0.141l0.366-2.375c0.385-0.391,0.821-0.684,1.255-0.684   C60.854,16.823,61.19,17.322,61.035,18.331z"/>
	<path fill="#3A3A39" d="M66.97,15.782l-1.733,3.656l-0.642-3.731l-1.383,0.173l1.104,5.164l-0.173,0.347   c-0.222,0.379-0.552,0.553-0.932,0.553c-0.249,0-0.429-0.032-0.596-0.076l0.009,1.074c0.113,0.032,0.24,0.054,0.469,0.054   c1.009,0,1.667-0.401,2.332-1.692l2.836-5.521H66.97z"/>
</g>




<path fill="#3A3A39" d="M74.206,45H4.792c-2.644,0-4.793-2.15-4.793-4.795V4.794C-0.001,2.15,2.148,0,4.792,0h69.412  c2.645,0,4.795,2.15,4.795,4.794v35.413C78.999,42.85,76.849,45,74.206,45z M4.792,3C3.819,3,2.999,3.821,2.999,4.794v35.413  C2.999,41.18,3.819,42,4.792,42h69.412c0.973,0,1.795-0.82,1.795-1.793V4.794C75.999,3.821,75.177,3,74.204,3H4.792z"/>

</svg>